# xmcd
#
# Track frame offsets: 
#        150
#        20394
#        33758
#        48342
#        64977
#        82347
#        102521
#        119309
#        136145
#        156016
#        171215
#        187578
#
# Disc length: 2822 seconds
#
# Revision: 0
# Processed by: cddbd v1.5.2PL0 Copyright (c) Steve Scherf et al.
# Submitted via: ExactAudioCopy v1.0b3
#
DISCID=960b040c
DTITLE=House of Heroes  - Suburba (2010)
DYEAR=2010
DGENRE=
TTITLE0=Relentless 
TTITLE1=Elevator 
TTITLE2=Love is For the Middle Class 
TTITLE3=So Far Away 
TTITLE4=God Save the Foolish Kings 
TTITLE5=Salt In the Sea 
TTITLE6=Independence Day For a Petty Thief
TTITLE7=Somebody Knows 
TTITLE8=Disappear 
TTITLE9=She Mighty Mighty 
TTITLE10=Constant 
TTITLE11=Burn Me Down 
EXTD=
EXTT0=
EXTT1=
EXTT2=
EXTT3=
EXTT4=
EXTT5=
EXTT6=
EXTT7=
EXTT8=
EXTT9=
EXTT10=
EXTT11=
PLAYORDER=
